<?xml version="1.0" standalone="no"?>
<!DOCTYPE svg PUBLIC "-//W3C//DTD SVG 20010904//EN"
 "http://www.w3.org/TR/2001/REC-SVG-20010904/DTD/svg10.dtd">
<svg version="1.0" xmlns="http://www.w3.org/2000/svg"
 width="3951.000000pt" height="1094.000000pt" viewBox="0 0 3951.000000 1094.000000"
 preserveAspectRatio="xMidYMid meet">
<metadata>
Created by potrace 1.13, written by Peter Selinger 2001-2015
</metadata>
<g transform="translate(0.000000,1094.000000) scale(0.100000,-0.100000)"
fill="#2D3F5D" stroke="none">
<path d="M26380 10922 c-20 -9 -43 -32 -53 -52 -10 -19 -132 -523 -272 -1120
-141 -597 -259 -1093 -263 -1104 -6 -15 -41 38 -166 248 -87 147 -168 273
-179 281 -53 37 -138 26 -179 -24 -13 -15 -72 -120 -133 -234 -60 -113 -111
-205 -112 -203 -2 2 -69 366 -148 811 -80 444 -152 820 -160 835 -40 77 -153
91 -214 26 -15 -16 -85 -223 -230 -677 l-207 -654 -315 -5 c-222 -4 -320 -9
-335 -17 -79 -45 -99 -143 -43 -207 17 -20 47 -40 67 -46 22 -6 180 -10 387
-10 322 0 353 2 392 19 24 11 48 32 56 48 8 15 74 215 146 443 73 228 134 422
138 430 3 8 65 -316 138 -721 73 -405 137 -744 143 -755 22 -42 61 -67 109
-71 85 -8 97 5 267 324 83 155 154 285 157 288 4 3 86 -130 184 -295 98 -165
191 -312 207 -325 59 -50 174 -23 202 48 7 17 114 461 237 985 133 567 227
945 231 935 4 -10 59 -297 123 -638 64 -341 123 -632 131 -647 31 -60 25 -60
689 -89 336 -15 621 -25 635 -22 65 16 100 64 100 139 0 40 -5 51 -38 84 -46
46 -8 42 -672 70 -266 12 -485 22 -486 23 0 1 -77 403 -169 892 -92 490 -174
906 -184 925 -20 43 -73 80 -115 80 -17 0 -47 -8 -66 -18z"/>
<path d="M22185 9330 c-310 -62 -508 -362 -444 -672 44 -214 235 -396 449
-429 41 -6 90 -14 107 -18 31 -6 58 -49 554 -891 287 -487 526 -894 531 -905
8 -18 -12 -42 -152 -180 -322 -318 -534 -606 -721 -977 l-68 -136 -68 -7
c-274 -26 -489 -100 -695 -237 -106 -71 -257 -212 -328 -307 -284 -379 -363
-872 -209 -1308 73 -207 177 -371 334 -529 220 -221 471 -348 794 -402 l102
-17 42 -100 c190 -447 478 -863 831 -1202 264 -253 527 -440 856 -607 572
-292 1166 -422 1803 -395 769 34 1519 321 2126 816 136 111 393 368 504 504
212 260 387 547 522 856 l58 131 81 12 c329 46 616 193 841 432 182 192 299
418 356 688 29 137 32 380 6 515 -39 200 -127 413 -233 562 -64 91 -212 242
-299 307 -208 156 -446 248 -718 277 l-108 12 -69 137 c-191 381 -400 662
-744 1001 l-139 137 527 893 c289 492 530 899 534 906 4 6 51 21 104 31 223
46 382 188 444 397 26 88 24 240 -5 325 -66 189 -219 329 -412 375 -288 68
-587 -115 -664 -405 -17 -63 -19 -204 -4 -270 5 -25 30 -89 56 -142 l46 -96
-528 -851 -527 -851 -41 24 c-23 13 -73 42 -112 64 -385 219 -843 371 -1325
437 -162 23 -544 31 -722 16 -533 -46 -1053 -208 -1518 -474 -63 -36 -118 -63
-121 -59 -4 4 -246 394 -538 866 l-533 859 36 76 c84 180 85 345 4 511 -38 78
-157 202 -235 243 -104 55 -257 79 -368 57z m3891 -2925 c431 -52 841 -204
1200 -444 186 -125 314 -232 470 -394 415 -428 668 -959 756 -1577 20 -145 17
-573 -5 -725 -90 -602 -345 -1125 -757 -1549 -69 -71 -168 -164 -220 -208
-217 -183 -561 -381 -827 -477 -612 -221 -1294 -221 -1906 0 -271 98 -607 293
-832 482 -654 551 -1015 1354 -992 2202 16 548 166 1022 467 1472 121 182 231
313 388 465 255 245 558 441 886 573 436 175 901 236 1372 180z"/>
<path d="M24568 4661 c-72 -24 -113 -49 -164 -103 -52 -55 -78 -99 -98 -167
-78 -264 134 -528 408 -508 110 7 179 39 257 116 89 89 113 150 113 281 0 131
-24 192 -113 281 -49 49 -81 72 -126 89 -83 32 -201 36 -277 11z"/>
<path d="M26668 4661 c-72 -24 -113 -49 -164 -103 -52 -55 -78 -99 -98 -167
-43 -148 2 -302 120 -410 78 -71 145 -95 264 -95 131 0 192 24 281 113 89 89
113 150 113 281 0 131 -24 192 -113 281 -49 49 -81 72 -126 89 -83 32 -201 36
-277 11z"/>
<path d="M4929 7005 c-63 -20 -141 -92 -170 -157 l-24 -53 0 -2555 0 -2555 24
-48 c117 -236 464 -212 536 36 13 47 15 347 13 2592 l-3 2540 -27 50 c-69 130
-216 193 -349 150z"/>
<path d="M34430 7011 c-86 -28 -141 -74 -181 -151 l-24 -45 -5 -1082 -5 -1083
-60 82 c-76 103 -245 280 -344 360 -655 529 -1612 495 -2268 -81 -352 -308
-577 -752 -645 -1271 -15 -120 -15 -488 1 -600 48 -344 153 -639 311 -880 238
-362 574 -618 981 -748 205 -66 280 -76 544 -76 260 0 340 10 521 70 117 38
327 143 429 215 117 83 359 325 455 456 l75 102 5 -297 5 -297 28 -58 c82
-167 311 -208 447 -81 27 25 58 68 71 97 l24 52 0 2545 c0 2472 -1 2546 -19
2594 -41 106 -140 176 -256 182 -36 2 -76 0 -90 -5z m-1300 -2095 c268 -63
472 -178 675 -381 215 -215 339 -446 407 -759 19 -87 22 -132 22 -326 0 -195
-3 -239 -22 -327 -131 -604 -567 -1048 -1139 -1159 -131 -26 -358 -23 -490 5
-273 57 -485 172 -679 365 -308 308 -454 740 -423 1248 24 395 153 713 389
962 207 218 476 354 782 395 123 17 357 5 478 -23z"/>
<path d="M15780 6581 c-76 -23 -146 -87 -182 -166 -23 -50 -23 -53 -26 -542
l-3 -493 -187 0 c-216 0 -239 -7 -308 -82 -48 -52 -68 -103 -67 -173 1 -63 21
-111 68 -163 68 -76 104 -86 312 -90 l182 -4 4 -1252 c3 -1121 5 -1261 20
-1343 91 -496 389 -767 906 -823 249 -28 547 11 741 97 106 46 159 122 160
226 0 111 -69 202 -177 233 -56 16 -60 16 -148 -6 -122 -31 -357 -39 -471 -16
-221 45 -366 179 -427 393 l-22 78 -3 1207 -3 1207 533 3 533 3 57 28 c166 82
196 286 59 410 -77 69 -55 67 -647 67 l-534 0 0 485 c0 558 1 550 -88 638 -75
74 -191 106 -282 78z"/>
<path d="M1685 5459 c-209 -20 -405 -74 -603 -169 -220 -106 -401 -242 -560
-419 -322 -363 -500 -824 -519 -1346 -36 -1026 564 -1851 1498 -2059 169 -37
316 -50 523 -43 528 16 912 170 1315 526 94 83 127 129 142 195 26 116 -52
245 -170 280 -109 32 -164 14 -291 -95 -238 -203 -481 -325 -763 -381 -148
-29 -435 -32 -570 -5 -424 85 -750 333 -942 716 -75 150 -135 352 -152 511
l-6 60 1434 2 c1607 3 1470 -3 1552 76 74 71 82 98 81 262 -3 461 -170 939
-444 1275 -364 446 -922 670 -1525 614z m435 -508 c496 -113 837 -519 939
-1121 12 -67 21 -133 21 -146 l0 -24 -1246 0 -1247 0 7 70 c15 152 84 376 163
535 131 260 345 481 581 599 79 40 223 85 320 101 116 19 347 12 462 -14z"/>
<path d="M8095 5459 c-129 -13 -270 -43 -405 -88 -676 -226 -1154 -844 -1262
-1631 -19 -143 -16 -488 6 -635 116 -767 591 -1354 1281 -1584 213 -71 404
-101 645 -101 551 0 1001 173 1400 539 111 101 134 142 134 231 0 112 -69 204
-180 236 -101 29 -166 4 -311 -119 -211 -181 -466 -305 -736 -359 -148 -29
-435 -32 -570 -5 -340 68 -635 256 -827 525 -137 192 -239 462 -266 699 l-7
63 1434 2 c1430 3 1434 3 1479 24 54 25 103 72 133 128 20 37 22 54 21 191 -2
370 -110 756 -298 1065 -171 279 -434 522 -711 655 -285 137 -627 195 -960
164z m415 -503 c430 -92 738 -387 894 -857 38 -113 71 -264 82 -371 l7 -68
-1247 0 -1246 0 0 29 c0 17 9 79 21 138 71 370 260 701 513 897 181 140 342
210 565 246 80 13 323 4 411 -14z"/>
<path d="M12654 5460 c-961 -93 -1699 -848 -1795 -1835 -52 -534 120 -1091
463 -1500 474 -566 1202 -813 1953 -664 344 68 676 248 958 518 115 110 136
148 137 239 0 80 -27 138 -90 195 -53 48 -103 67 -174 67 -62 0 -105 -24 -196
-106 -256 -231 -526 -370 -814 -419 -117 -20 -346 -19 -467 1 -338 57 -660
252 -869 529 -214 283 -313 586 -314 960 0 287 50 509 170 748 315 626 1020
915 1671 686 187 -66 387 -192 566 -356 104 -96 234 -121 343 -68 104 51 161
152 152 269 -7 81 -34 131 -107 199 -308 284 -676 462 -1081 521 -133 20 -387
27 -506 16z"/>
<path d="M37534 5460 c-696 -68 -1272 -518 -1538 -1201 -97 -250 -136 -456
-143 -755 -8 -300 23 -527 102 -769 49 -147 179 -408 262 -525 89 -124 321
-356 443 -443 177 -125 450 -247 667 -297 346 -81 785 -63 1128 47 206 65 464
207 625 341 211 178 250 229 250 331 0 147 -135 267 -277 247 -61 -8 -94 -27
-199 -116 -277 -235 -553 -356 -891 -391 -592 -61 -1115 216 -1371 726 -70
141 -136 361 -156 527 l-6 48 1438 2 1437 3 45 24 c134 70 166 152 150 389
-57 849 -519 1503 -1222 1730 -219 71 -517 104 -744 82z m323 -491 c319 -43
577 -193 769 -448 76 -102 172 -288 214 -420 30 -94 72 -287 84 -388 l7 -53
-1251 0 -1250 0 6 43 c53 383 196 692 428 923 235 234 501 349 818 353 53 0
132 -4 175 -10z"/>
<path d="M20192 5430 c-456 -64 -892 -408 -1159 -914 l-53 -101 0 376 c0 416
-3 443 -63 520 -76 99 -228 138 -339 87 -64 -30 -119 -83 -150 -147 l-23 -46
-3 -1740 c-3 -1983 -11 -1806 86 -1905 47 -48 68 -61 116 -75 143 -41 281 20
348 153 l23 47 6 840 c5 719 8 854 22 938 70 414 203 706 430 944 229 240 506
382 854 437 125 20 162 35 224 92 62 59 84 115 83 214 -1 210 -152 315 -402
280z"/>
</g>
</svg>
