<?xml version="1.0" encoding="UTF-8"?>
<svg width="899px" height="155px" viewBox="0 0 899 155" version="1.1" xmlns="http://www.w3.org/2000/svg" xmlns:xlink="http://www.w3.org/1999/xlink">
    <!-- Generator: Sketch 62 (91390) - https://sketch.com -->
    <title>Slice 1</title>
    <desc>Created with Sketch.</desc>
    <defs>
        <polygon id="path-1" points="0.899371362 131.959459 132.522538 131.959459 132.522538 0.685456081 0.899371362 0.685456081"></polygon>
        <polygon id="path-3" points="1.41993882e-20 0.0468141892 1.41993882e-20 101.822118 92.0145751 101.822118 92.0145751 0.0468141892 0 0.0468141892"></polygon>
    </defs>
    <g id="Page-1" stroke="none" stroke-width="1" fill="none" fill-rule="evenodd">
        <g id="electrode-logo-full">
            <g id="Group-3" transform="translate(562.630966, 0.882872)" fill="#FFC220" fill-rule="nonzero">
                <path d="M35.6734226,39.744723 C35.0081141,39.744723 34.3784284,39.3949257 34.0316298,38.8073919 L29.0716764,30.4426284 L24.9038068,38.2575608 C24.5213853,38.9760068 23.7251106,39.3708378 22.920454,39.2472568 C22.1178929,39.1184392 21.485064,38.4963446 21.341525,37.6993514 L17.6587544,17.192223 L13.8104424,29.2937432 C13.555844,30.0896892 12.8245285,30.6248581 11.9905355,30.6248581 L2.32103609,30.6248581 C1.26911525,30.6248581 0.416263097,29.7734054 0.416263097,28.7166824 C0.416263097,27.6641486 1.26911525,26.8106014 2.32103609,26.8106014 L10.5939115,26.8106014 L16.3564261,8.69235811 C16.6225495,7.85975676 17.4261583,7.3005 18.2968219,7.37066892 C19.1727241,7.42722297 19.89461,8.07235811 20.0475786,8.93428378 L24.1242957,31.6093176 L27.2978696,25.6606689 C27.6205704,25.0500946 28.2492084,24.6688784 28.9386147,24.650027 C29.6384983,24.6311757 30.2692317,24.9935405 30.6254598,25.5852635 L34.9043888,32.7948581 L42.2563097,1.63147973 C42.4658556,0.754891892 43.2705122,0.136986486 44.1568917,0.165263514 C45.0568917,0.184114865 45.8206868,0.82925 45.9862282,1.71526351 L50.7492084,26.8807703 L65.8124214,27.5332365 C66.8611991,27.577223 67.6773807,28.468473 67.6312806,29.5210068 C67.5883236,30.5735405 66.6862282,31.3893851 65.6458324,31.3474932 L49.0717928,30.6248581 C48.1906519,30.5850608 47.4457159,29.9420203 47.2833178,29.0748581 L43.9106752,11.2456689 L37.5320955,38.272223 C37.3529336,39.0294189 36.7316298,39.6054324 35.9615483,39.7216824 C35.8662049,39.7352973 35.7677183,39.744723 35.6734226,39.744723" id="Fill-1"></path>
            </g>
            <g id="Group-6" transform="translate(530.151339, 22.876115)">
                <g id="Fill-4-Clipped">
                    <g>
                        <mask id="mask-2" fill="white">
                            <use xlink:href="#path-1"></use>
                        </mask>
                        <g id="path-1"></g>
                        <path d="M66.7114785,119.887787 C45.1010012,119.887787 27.5819092,102.374882 27.5819092,80.7733277 C27.5819092,59.1644426 45.1010012,41.6536318 66.7114785,41.6536318 C88.3240512,41.6536318 105.842095,59.1644426 105.842095,80.7733277 C105.842095,102.374882 88.3240512,119.887787 66.7114785,119.887787 M114.657695,60.1478547 L113.128009,60.0054223 L112.459558,58.6250845 C109.718696,52.9979561 105.960489,47.9405574 101.291804,43.5858953 L99.6919208,42.0934966 L114.750943,16.5446791 L116.019744,16.343598 C119.870151,15.7340709 122.666542,12.4644088 122.666542,8.56846284 C122.666542,4.22113176 119.126263,0.685456081 114.779232,0.685456081 C110.429057,0.685456081 106.88773,4.22113176 106.88773,8.56846284 C106.88773,9.88491554 107.20624,11.1364358 107.8244,12.2957939 L108.569336,13.6803209 L93.7041444,37.6529561 L91.4305704,36.3742061 C83.925681,32.1693074 75.3961118,29.9218074 66.7628172,29.8778209 L66.7072875,29.8778209 L66.6653783,29.8778209 C58.0268452,29.9218074 49.5004191,32.1693074 41.994482,36.3742061 L39.720908,37.6529561 L24.6126426,13.2970101 L25.2538533,11.9522804 C25.7682887,10.8767061 26.0260303,9.73619932 26.0260303,8.56846284 C26.0260303,4.22113176 22.4909895,0.685456081 18.1418626,0.685456081 C13.7906403,0.685456081 10.2503609,4.22113176 10.2503609,8.56846284 C10.2503609,12.6215034 13.283539,15.9938007 17.3110128,16.4116723 L18.6793481,16.5541047 L33.7289406,42.0934966 L32.1342957,43.5838007 C27.4582771,47.9447466 23.7053085,52.9979561 20.9675902,58.6250845 L20.2980908,60.0054223 L18.7694529,60.1478547 C8.57923166,61.0851858 0.899371362,69.5117399 0.899371362,79.7490709 C0.899371362,89.4585642 8.15175786,97.8275169 17.7678231,99.2120439 L19.2880792,99.4298818 L19.8863329,100.846875 C27.8679395,119.644814 46.2252154,131.856301 66.6653783,131.959983 L66.7114785,131.959983 L66.7628172,131.959983 C87.1956461,131.856301 105.555017,119.644814 113.537672,100.846875 L114.139069,99.4298818 L115.655134,99.2120439 C125.272247,97.8275169 132.522538,89.4585642 132.522538,79.7490709 C132.522538,69.5117399 124.844773,61.0851858 114.657695,60.1478547" id="Fill-4" fill="#FFC220" fill-rule="nonzero" mask="url(#mask-2)"></path>
                    </g>
                </g>
            </g>
            <path d="M611.634866,100.351713 C608.518917,100.351713 605.990745,97.8256318 605.990745,94.7141115 C605.990745,91.5921182 608.518917,89.0681318 611.634866,89.0681318 C614.756054,89.0681318 617.280035,91.5921182 617.280035,94.7141115 C617.280035,97.8256318 614.756054,100.351713 611.634866,100.351713 Z" id="Fill-7" fill="#FFC220" fill-rule="nonzero"></path>
            <path d="M587.734994,94.7141115 C587.734994,97.8256318 585.209965,100.351713 582.086682,100.351713 C578.975972,100.351713 576.445704,97.8256318 576.445704,94.7141115 C576.445704,91.5921182 578.975972,89.0681318 582.086682,89.0681318 C585.209965,89.0681318 587.734994,91.5921182 587.734994,94.7141115" id="Fill-9" fill="#FFC220" fill-rule="nonzero"></path>
            <g id="Group-13" transform="translate(0.000000, 49.058547)">
                <g id="Fill-11-Clipped">
                    <g>
                        <mask id="mask-4" fill="white">
                            <use xlink:href="#path-3"></use>
                        </mask>
                        <g id="path-3"></g>
                        <path d="M77.4951339,45.468098 C75.9874505,27.7520169 65.8066589,12.2970507 46.3848894,12.2970507 C29.4137602,12.2970507 16.5937369,26.4324223 14.7067753,45.468098 L77.4951339,45.468098 Z M48.647986,101.822118 C21.873248,101.822118 -0.000209545984,81.2783345 -0.000209545984,51.1224561 L-0.000209545984,50.7454291 C-0.000209545984,22.6631993 19.7987427,0.0468141892 46.7610244,0.0468141892 C75.6102678,0.0468141892 92.0145751,23.6057669 92.0145751,49.4258345 C92.0145751,53.3846182 88.810617,56.2112736 85.2263329,56.2112736 L14.7067753,56.2112736 C16.7823283,77.320598 31.6779045,89.1948547 49.0241211,89.1948547 C61.0918743,89.1948547 69.9546217,84.4830642 77.1189988,77.8861385 C78.2505471,76.9435709 79.5706868,76.1895169 81.2669616,76.1895169 C84.8501979,76.1895169 87.6790687,79.0161723 87.6790687,82.4083682 C87.6790687,84.1060372 86.9226077,85.8016115 85.4149243,87.1201588 C76.1749942,95.9792466 65.239837,101.822118 48.647986,101.822118 L48.647986,101.822118 Z" id="Fill-11" fill="#FFC220" fill-rule="nonzero" mask="url(#mask-4)"></path>
                    </g>
                </g>
            </g>
            <path d="M118.979686,17.4408514 C118.979686,13.4831149 122.186787,10.0898716 126.146158,10.0898716 C130.294121,10.0898716 133.499127,13.4831149 133.499127,17.4408514 L133.499127,142.210615 C133.499127,146.357912 130.482712,149.560547 126.33475,149.560547 C122.186787,149.560547 118.979686,146.357912 118.979686,142.210615 L118.979686,17.4408514 Z" id="Fill-14" fill="#FFC220" fill-rule="nonzero"></path>
            <path d="M238.707451,94.5266453 C237.199767,76.8105642 227.01688,61.355598 207.597206,61.355598 C190.626077,61.355598 177.806054,75.4909696 175.919092,94.5266453 L238.707451,94.5266453 Z M209.860303,150.880666 C183.085565,150.880666 161.214203,130.336882 161.214203,100.181003 L161.214203,99.8039764 C161.214203,71.7217466 181.011059,49.1053615 207.973341,49.1053615 C236.822584,49.1053615 253.225844,72.6643142 253.225844,98.4843818 C253.225844,102.443166 250.01979,105.269821 246.43865,105.269821 L175.919092,105.269821 C177.994645,126.379145 192.890221,138.253402 210.236438,138.253402 C222.304191,138.253402 231.164843,133.541611 238.331315,126.944686 C239.462864,126.002118 240.781956,125.248064 242.479278,125.248064 C246.062515,125.248064 248.890338,128.07472 248.890338,131.466916 C248.890338,133.164584 248.134924,134.860159 246.627241,136.178706 C237.387311,145.037794 226.452154,150.880666 209.860303,150.880666 L209.860303,150.880666 Z" id="Fill-16" fill="#FFC220" fill-rule="nonzero"></path>
            <path d="M272.835367,100.369622 L272.835367,99.9925946 C272.835367,72.4748581 294.330594,49.1054662 322.801607,49.1054662 C339.016275,49.1054662 349.95248,55.3243176 358.626636,63.2408378 C359.758184,64.1823581 360.889732,66.0674932 360.889732,68.3286081 C360.889732,72.2873919 357.682631,75.3025608 353.911851,75.3025608 C352.026985,75.3025608 350.33071,74.5485068 349.199162,73.6059392 C342.223376,67.197527 334.303586,61.9212432 322.613015,61.9212432 C302.814063,61.9212432 287.730943,78.6958041 287.730943,99.6155676 L287.730943,99.9925946 C287.730943,121.101919 303.193341,137.87648 323.555972,137.87648 C334.679721,137.87648 343.542468,132.786615 350.706845,126.002223 C351.65085,125.059655 352.969942,124.117088 354.854808,124.117088 C358.438044,124.117088 361.454459,127.32077 361.454459,130.714014 C361.454459,132.410635 360.699045,134.106209 359.569593,135.237291 C350.33071,144.472358 339.204866,150.88077 322.801607,150.88077 C294.330594,150.88077 272.835367,127.698845 272.835367,100.369622" id="Fill-18" fill="#FFC220" fill-rule="nonzero"></path>
            <path d="M391.625832,122.797493 L391.625832,63.9948919 L383.706042,63.9948919 C380.311397,63.9948919 377.294983,60.9786757 377.294983,57.5854324 C377.294983,54.004723 380.311397,51.1780676 383.706042,51.1780676 L391.625832,51.1780676 L391.625832,28.1836081 C391.625832,24.2258716 394.642247,20.8336757 398.79021,20.8336757 C402.749581,20.8336757 406.14213,24.2258716 406.14213,28.1836081 L406.14213,51.1780676 L431.409185,51.1780676 C434.992421,51.1780676 438.008836,54.1932365 438.008836,57.5854324 C438.008836,61.1671892 434.992421,63.9948919 431.409185,63.9948919 L406.14213,63.9948919 L406.14213,120.913405 C406.14213,132.786615 412.741781,137.122426 422.548533,137.122426 C427.637357,137.122426 430.277637,135.802831 431.409185,135.802831 C434.80383,135.802831 437.631653,138.629486 437.631653,142.021682 C437.631653,144.660872 435.935378,146.733473 433.48369,147.677088 C429.335728,149.372662 424.809534,150.31523 419.152841,150.31523 C403.502899,150.31523 391.625832,142.587223 391.625832,122.797493" id="Fill-20" fill="#FFC220" fill-rule="nonzero"></path>
            <path d="M462.707811,57.5858514 C462.707811,53.6281149 465.914913,50.2359189 469.874284,50.2359189 C474.022247,50.2359189 477.226205,53.4396014 477.226205,57.5858514 L477.226205,75.867473 C484.392678,59.6595 498.532841,49.8588919 510.789185,49.8588919 C515.124692,49.8588919 517.95461,53.0625743 517.95461,57.2098716 C517.95461,61.1676081 515.315378,63.9942635 511.543551,64.5598041 C492.688603,66.8209189 477.226205,80.9562905 477.226205,109.039568 L477.226205,142.210615 C477.226205,146.168351 474.210838,149.560547 470.062875,149.560547 C465.914913,149.560547 462.707811,146.357912 462.707811,142.210615 L462.707811,57.5858514 Z" id="Fill-22" fill="#FFC220" fill-rule="nonzero"></path>
            <path d="M697.046228,99.615777 L697.046228,99.9917568 C697.046228,122.987264 713.073353,137.688176 731.361478,137.688176 C749.463108,137.688176 766.621781,122.420676 766.621781,99.9917568 L766.621781,99.615777 C766.621781,77.1868581 749.463108,62.1089189 731.361478,62.1089189 C712.506531,62.1089189 697.046228,76.0568243 697.046228,99.615777 L697.046228,99.615777 Z M780.5744,142.210405 C780.5744,146.357703 777.369395,149.560338 773.410023,149.560338 C769.262061,149.560338 766.054959,146.357703 766.054959,142.210405 L766.054959,129.017601 C758.136217,140.703345 746.635285,150.692466 728.722247,150.692466 C705.342154,150.692466 682.150652,132.222331 682.150652,100.181318 L682.150652,99.8042905 C682.150652,67.9528378 705.342154,49.1056757 728.722247,49.1056757 C746.823877,49.1056757 758.514447,58.9052365 766.054959,69.8369257 L766.054959,17.4406419 C766.054959,13.2943919 769.071374,10.0907095 773.221432,10.0907095 C777.369395,10.0907095 780.5744,13.2943919 780.5744,17.4406419 L780.5744,142.210405 Z" id="Fill-24" fill="#FFC220" fill-rule="nonzero"></path>
            <path d="M884.467299,94.5266453 C882.958568,76.8105642 872.776729,61.355598 853.354959,61.355598 C836.385925,61.355598 823.563807,75.4909696 821.678941,94.5266453 L884.467299,94.5266453 Z M855.618056,150.880666 C828.843318,150.880666 806.971956,130.336882 806.971956,100.181003 L806.971956,99.8039764 C806.971956,71.7217466 826.770908,49.1053615 853.73319,49.1053615 C882.580338,49.1053615 898.983597,72.6643142 898.983597,98.4843818 C898.983597,102.443166 895.779639,105.269821 892.196403,105.269821 L821.678941,105.269821 C823.752398,126.379145 838.647974,138.253402 855.994191,138.253402 C868.061944,138.253402 876.924692,133.541611 884.089069,126.944686 C885.220617,126.002118 886.540757,125.248064 888.237031,125.248064 C891.820268,125.248064 894.648091,128.07472 894.648091,131.466916 C894.648091,133.164584 893.894773,134.860159 892.386042,136.178706 C883.147159,145.037794 872.209907,150.880666 855.618056,150.880666 L855.618056,150.880666 Z" id="Fill-26" fill="#FFC220" fill-rule="nonzero"></path>
        </g>
    </g>
</svg>