<?xml version="1.0" encoding="UTF-8"?>
<svg width="132px" height="154px" viewBox="0 0 132 154" version="1.1" xmlns="http://www.w3.org/2000/svg" xmlns:xlink="http://www.w3.org/1999/xlink">
    <!-- Generator: Sketch 62 (91390) - https://sketch.com -->
    <title>electrode-full-logo</title>
    <desc>Created with Sketch.</desc>
    <defs>
        <polygon id="path-1" points="0.899371362 131.959459 132.522538 131.959459 132.522538 0.685456081 0.899371362 0.685456081"></polygon>
    </defs>
    <g id="Page-1" stroke="none" stroke-width="1" fill="none" fill-rule="evenodd">
        <g id="electrode-full-logo" transform="translate(-1.000000, -1.000000)">
            <g id="Group-3" transform="translate(32.630966, 0.882872)" fill="#FFC220" fill-rule="nonzero">
                <path d="M35.6734226,39.744723 C35.0081141,39.744723 34.3784284,39.3949257 34.0316298,38.8073919 L29.0716764,30.4426284 L24.9038068,38.2575608 C24.5213853,38.9760068 23.7251106,39.3708378 22.920454,39.2472568 C22.1178929,39.1184392 21.485064,38.4963446 21.341525,37.6993514 L17.6587544,17.192223 L13.8104424,29.2937432 C13.555844,30.0896892 12.8245285,30.6248581 11.9905355,30.6248581 L2.32103609,30.6248581 C1.26911525,30.6248581 0.416263097,29.7734054 0.416263097,28.7166824 C0.416263097,27.6641486 1.26911525,26.8106014 2.32103609,26.8106014 L10.5939115,26.8106014 L16.3564261,8.69235811 C16.6225495,7.85975676 17.4261583,7.3005 18.2968219,7.37066892 C19.1727241,7.42722297 19.89461,8.07235811 20.0475786,8.93428378 L24.1242957,31.6093176 L27.2978696,25.6606689 C27.6205704,25.0500946 28.2492084,24.6688784 28.9386147,24.650027 C29.6384983,24.6311757 30.2692317,24.9935405 30.6254598,25.5852635 L34.9043888,32.7948581 L42.2563097,1.63147973 C42.4658556,0.754891892 43.2705122,0.136986486 44.1568917,0.165263514 C45.0568917,0.184114865 45.8206868,0.82925 45.9862282,1.71526351 L50.7492084,26.8807703 L65.8124214,27.5332365 C66.8611991,27.577223 67.6773807,28.468473 67.6312806,29.5210068 C67.5883236,30.5735405 66.6862282,31.3893851 65.6458324,31.3474932 L49.0717928,30.6248581 C48.1906519,30.5850608 47.4457159,29.9420203 47.2833178,29.0748581 L43.9106752,11.2456689 L37.5320955,38.272223 C37.3529336,39.0294189 36.7316298,39.6054324 35.9615483,39.7216824 C35.8662049,39.7352973 35.7677183,39.744723 35.6734226,39.744723" id="Fill-1"></path>
            </g>
            <g id="Group-6" transform="translate(0.151339, 22.876115)">
                <g id="Fill-4-Clipped">
                    <mask id="mask-2" fill="white">
                        <use xlink:href="#path-1"></use>
                    </mask>
                    <g id="path-1"></g>
                    <path d="M66.7114785,119.887787 C45.1010012,119.887787 27.5819092,102.374882 27.5819092,80.7733277 C27.5819092,59.1644426 45.1010012,41.6536318 66.7114785,41.6536318 C88.3240512,41.6536318 105.842095,59.1644426 105.842095,80.7733277 C105.842095,102.374882 88.3240512,119.887787 66.7114785,119.887787 M114.657695,60.1478547 L113.128009,60.0054223 L112.459558,58.6250845 C109.718696,52.9979561 105.960489,47.9405574 101.291804,43.5858953 L99.6919208,42.0934966 L114.750943,16.5446791 L116.019744,16.343598 C119.870151,15.7340709 122.666542,12.4644088 122.666542,8.56846284 C122.666542,4.22113176 119.126263,0.685456081 114.779232,0.685456081 C110.429057,0.685456081 106.88773,4.22113176 106.88773,8.56846284 C106.88773,9.88491554 107.20624,11.1364358 107.8244,12.2957939 L108.569336,13.6803209 L93.7041444,37.6529561 L91.4305704,36.3742061 C83.925681,32.1693074 75.3961118,29.9218074 66.7628172,29.8778209 L66.7072875,29.8778209 L66.6653783,29.8778209 C58.0268452,29.9218074 49.5004191,32.1693074 41.994482,36.3742061 L39.720908,37.6529561 L24.6126426,13.2970101 L25.2538533,11.9522804 C25.7682887,10.8767061 26.0260303,9.73619932 26.0260303,8.56846284 C26.0260303,4.22113176 22.4909895,0.685456081 18.1418626,0.685456081 C13.7906403,0.685456081 10.2503609,4.22113176 10.2503609,8.56846284 C10.2503609,12.6215034 13.283539,15.9938007 17.3110128,16.4116723 L18.6793481,16.5541047 L33.7289406,42.0934966 L32.1342957,43.5838007 C27.4582771,47.9447466 23.7053085,52.9979561 20.9675902,58.6250845 L20.2980908,60.0054223 L18.7694529,60.1478547 C8.57923166,61.0851858 0.899371362,69.5117399 0.899371362,79.7490709 C0.899371362,89.4585642 8.15175786,97.8275169 17.7678231,99.2120439 L19.2880792,99.4298818 L19.8863329,100.846875 C27.8679395,119.644814 46.2252154,131.856301 66.6653783,131.959983 L66.7114785,131.959983 L66.7628172,131.959983 C87.1956461,131.856301 105.555017,119.644814 113.537672,100.846875 L114.139069,99.4298818 L115.655134,99.2120439 C125.272247,97.8275169 132.522538,89.4585642 132.522538,79.7490709 C132.522538,69.5117399 124.844773,61.0851858 114.657695,60.1478547" id="Fill-4" fill="#FFC220" fill-rule="nonzero" mask="url(#mask-2)"></path>
                </g>
            </g>
            <path d="M81.634866,100.351713 C78.518917,100.351713 75.990745,97.8256318 75.990745,94.7141115 C75.990745,91.5921182 78.518917,89.0681318 81.634866,89.0681318 C84.756054,89.0681318 87.280035,91.5921182 87.280035,94.7141115 C87.280035,97.8256318 84.756054,100.351713 81.634866,100.351713 Z" id="Fill-7" fill="#FFC220" fill-rule="nonzero"></path>
            <path d="M57.734994,94.7141115 C57.734994,97.8256318 55.209965,100.351713 52.086682,100.351713 C48.975972,100.351713 46.445704,97.8256318 46.445704,94.7141115 C46.445704,91.5921182 48.975972,89.0681318 52.086682,89.0681318 C55.209965,89.0681318 57.734994,91.5921182 57.734994,94.7141115" id="Fill-9" fill="#FFC220" fill-rule="nonzero"></path>
        </g>
    </g>
</svg>