<?xml version="1.0" standalone="no"?>
<!DOCTYPE svg PUBLIC "-//W3C//DTD SVG 20010904//EN"
 "http://www.w3.org/TR/2001/REC-SVG-20010904/DTD/svg10.dtd">
<svg version="1.0" xmlns="http://www.w3.org/2000/svg"
 width="1417.000000pt" height="1417.000000pt" viewBox="0 0 1417.000000 1417.000000"
 preserveAspectRatio="xMidYMid meet">
<metadata>
Created by potrace 1.11, written by Peter Selinger 2001-2013
</metadata>
<g transform="translate(0.000000,1417.000000) scale(0.100000,-0.100000)"
fill="#000000" stroke="none">
<path d="M7705 12192 c-33 -11 -51 -26 -67 -52 -13 -20 -80 -276 -91 -346 -1
-11 -6 -25 -10 -31 -5 -7 -6 -13 -4 -13 2 0 -2 -26 -10 -57 -15 -63 -72 -309
-78 -334 -2 -8 -10 -44 -19 -80 -9 -35 -18 -73 -20 -84 -3 -11 -48 -204 -101
-429 -53 -224 -98 -416 -100 -425 -2 -9 -17 -73 -34 -143 -17 -70 -31 -135
-31 -143 0 -8 -3 -15 -7 -15 -5 0 -66 98 -137 218 -163 276 -164 277 -202 296
-39 18 -99 14 -131 -11 -29 -21 -27 -18 -208 -358 -14 -27 -30 -54 -34 -58 -5
-5 -15 24 -22 65 -7 40 -13 75 -14 78 -1 3 -4 25 -9 50 -4 25 -11 65 -16 90
-5 25 -12 61 -14 80 -3 19 -15 85 -26 145 -11 61 -23 125 -26 144 -3 18 -8 43
-10 55 -2 11 -13 75 -25 140 -11 66 -22 122 -23 125 -2 3 -7 29 -10 56 -4 28
-9 57 -11 65 -2 8 -20 104 -39 212 -20 114 -42 211 -52 228 -21 34 -69 60
-111 60 -37 0 -89 -32 -106 -67 -8 -15 -49 -138 -92 -273 -42 -135 -91 -285
-107 -335 -16 -49 -31 -97 -33 -105 -2 -8 -39 -127 -83 -265 l-80 -250 -294 0
c-263 0 -298 -2 -321 -18 -82 -54 -81 -172 2 -221 32 -18 54 -19 386 -19 341
0 354 1 387 21 19 12 39 32 46 44 6 13 40 115 76 228 35 113 92 293 127 400
69 214 61 207 83 75 7 -41 35 -195 42 -230 2 -11 13 -69 23 -130 30 -165 30
-168 35 -191 2 -12 7 -37 10 -55 6 -37 14 -84 46 -259 11 -63 23 -131 26 -150
3 -19 7 -41 9 -48 3 -7 9 -41 15 -75 5 -34 12 -75 15 -92 13 -70 84 -122 152
-109 50 9 87 50 141 155 23 46 74 143 112 214 39 72 78 147 88 168 9 20 20 37
23 37 6 0 253 -409 305 -505 59 -107 145 -135 222 -70 27 22 34 42 63 163 18
75 34 142 35 147 1 6 10 42 19 80 9 39 18 79 21 90 8 40 13 61 23 93 5 17 8
32 6 32 -3 0 0 11 5 25 5 14 12 36 14 48 2 12 21 92 41 177 20 85 38 162 40
170 1 8 15 65 29 125 15 61 28 119 30 130 3 11 20 85 40 165 19 80 37 156 40
170 8 49 48 205 55 218 4 7 13 -20 19 -60 6 -40 14 -84 17 -98 3 -14 9 -50 15
-80 6 -30 12 -66 15 -80 3 -14 8 -41 11 -60 3 -19 7 -43 10 -52 3 -10 7 -30
10 -45 3 -16 18 -98 34 -183 16 -85 31 -166 34 -180 2 -14 12 -63 21 -110 9
-47 18 -96 21 -110 32 -180 53 -200 208 -205 120 -4 366 -15 441 -20 113 -7
430 -18 542 -19 l113 -1 31 31 c56 57 48 158 -16 200 -29 19 -18 18 -490 39
-243 11 -407 18 -465 21 -36 1 -75 3 -87 3 -22 1 -30 16 -39 68 -2 16 -7 39
-9 53 -3 14 -8 39 -10 55 -3 17 -10 53 -15 80 -6 28 -13 61 -15 75 -3 14 -8
39 -10 55 -3 17 -12 64 -20 105 -86 453 -124 655 -130 688 -3 18 -12 63 -19
100 -8 37 -17 83 -20 102 -5 32 -18 100 -30 156 -2 12 -7 38 -10 58 -14 87
-26 121 -54 148 -30 31 -87 44 -127 30z"/>
<path d="M3715 10681 c-176 -50 -326 -199 -372 -371 -14 -51 -16 -197 -3 -255
31 -142 142 -284 273 -349 69 -35 174 -61 259 -65 13 -1 74 -93 154 -236 6
-11 39 -67 74 -125 34 -58 72 -121 82 -140 16 -28 126 -214 173 -292 6 -9 17
-29 26 -45 9 -15 69 -118 134 -228 142 -241 213 -361 232 -395 8 -14 43 -72
77 -130 l62 -105 -161 -160 c-88 -88 -172 -174 -185 -191 -14 -17 -59 -73
-101 -125 -143 -176 -277 -385 -384 -600 -32 -63 -58 -115 -59 -116 -1 -1 -24
-5 -52 -8 -99 -10 -129 -14 -154 -19 -14 -3 -38 -8 -55 -12 -86 -17 -212 -61
-310 -110 -398 -197 -665 -581 -712 -1024 -42 -395 87 -771 360 -1053 127
-130 219 -198 362 -267 126 -60 149 -69 232 -91 106 -27 101 -26 168 -35 33
-4 63 -9 68 -10 4 -1 11 -2 16 -3 4 0 21 -31 37 -68 98 -229 240 -484 367
-663 147 -208 392 -475 577 -630 258 -218 565 -407 867 -534 184 -77 446 -163
550 -181 18 -3 61 -12 95 -20 35 -8 79 -17 98 -20 19 -3 46 -7 60 -10 14 -3
45 -7 70 -10 25 -3 61 -8 80 -10 258 -32 620 -23 885 22 50 8 104 17 120 20
81 13 296 70 430 115 668 221 1249 647 1671 1224 133 183 289 457 374 659 43
101 51 110 97 113 125 9 324 70 464 144 373 194 639 569 696 978 15 105 9 332
-10 425 -2 11 -8 38 -12 60 -5 22 -9 42 -10 45 0 3 -11 37 -24 75 -101 302
-303 548 -586 714 -95 56 -253 120 -334 136 -13 2 -31 7 -41 10 -29 9 -54 13
-122 20 -71 6 -143 16 -143 18 0 1 -31 64 -70 140 -86 171 -209 370 -317 512
-74 98 -213 252 -339 377 -88 87 -159 161 -159 164 0 3 39 72 87 152 47 81
121 206 163 277 104 176 528 896 635 1077 64 109 108 184 111 187 1 1 20 5 41
8 204 23 375 150 448 331 101 250 -13 549 -252 664 -126 60 -237 72 -367 39
-151 -40 -274 -138 -339 -273 -41 -86 -55 -145 -55 -239 0 -89 19 -163 69
-260 l39 -78 -132 -213 c-73 -117 -148 -239 -167 -270 -20 -32 -112 -181 -205
-330 -92 -150 -178 -289 -191 -308 -38 -60 -99 -159 -195 -315 -51 -82 -93
-151 -95 -153 -1 -1 -55 28 -121 64 -349 193 -739 337 -1054 389 -19 3 -48 8
-65 12 -16 4 -37 7 -45 8 -8 1 -37 4 -65 8 -241 36 -609 41 -808 12 -17 -2
-50 -7 -72 -9 -131 -16 -334 -56 -434 -87 -34 -10 -73 -21 -85 -23 -28 -6
-236 -78 -305 -105 -123 -50 -313 -143 -456 -224 -61 -35 -83 -43 -91 -34 -6
7 -82 127 -169 267 -267 432 -439 709 -467 753 -15 23 -31 48 -35 56 -3 8 -78
129 -165 268 -87 140 -158 258 -158 262 0 5 13 37 30 72 46 99 59 163 55 264
-4 110 -28 185 -91 277 -73 108 -180 182 -314 216 -50 13 -200 9 -255 -7z
m3630 -2724 c11 -3 51 -9 90 -12 38 -4 72 -8 75 -10 3 -2 26 -6 50 -10 25 -3
105 -22 178 -40 874 -228 1563 -884 1833 -1745 35 -111 76 -284 85 -361 3 -30
8 -56 10 -60 17 -30 26 -479 12 -619 -44 -425 -194 -836 -437 -1195 -107 -158
-178 -242 -326 -390 -273 -273 -625 -491 -992 -615 -171 -58 -149 -51 -308
-84 -117 -23 -137 -27 -275 -43 -127 -15 -534 -7 -610 12 -8 2 -35 7 -60 10
-25 3 -56 8 -70 10 -14 3 -34 7 -45 9 -95 18 -296 79 -410 123 -441 172 -824
460 -1127 848 -290 371 -479 856 -525 1350 -13 138 -5 515 12 567 2 7 6 33 9
58 3 25 8 56 10 70 3 14 11 50 17 80 6 30 12 60 14 65 21 97 96 318 148 435
278 629 779 1114 1412 1369 165 67 376 129 495 146 24 4 47 8 50 10 3 2 37 6
75 10 39 4 99 11 135 14 76 8 446 7 475 -2z"/>
<path d="M6015 6325 c-231 -55 -353 -313 -250 -530 28 -60 103 -138 159 -167
197 -101 430 -21 524 180 23 49 27 70 27 152 0 87 -3 101 -32 160 -80 163
-255 247 -428 205z"/>
<path d="M8005 6333 c-51 -10 -114 -39 -162 -74 -146 -108 -187 -290 -108
-473 21 -50 108 -135 167 -164 218 -107 478 16 534 254 42 184 -55 366 -234
438 -44 17 -152 28 -197 19z"/>
</g>
</svg>
